<?xml version="1.0" standalone="no"?>
<!DOCTYPE svg PUBLIC "-//W3C//DTD SVG 20010904//EN"
 "http://www.w3.org/TR/2001/REC-SVG-20010904/DTD/svg10.dtd">
<svg version="1.0" xmlns="http://www.w3.org/2000/svg"
 width="1920.000000pt" height="1925.000000pt" viewBox="0 0 1920.000000 1925.000000"
 preserveAspectRatio="xMidYMid meet">
<metadata>
Created by potrace 1.15, written by Peter Selinger 2001-2017
</metadata>
<g transform="translate(0.000000,1925.000000) scale(0.100000,-0.100000)"
fill="#000000" stroke="none">
<path d="M6655 17153 c-11 -3 -26 -10 -34 -17 -9 -7 -83 -13 -200 -16 -168 -5
-189 -7 -221 -27 -30 -18 -54 -22 -170 -25 -117 -4 -140 -7 -170 -26 -25 -16
-51 -22 -90 -22 -41 0 -65 -6 -95 -25 -22 -13 -56 -25 -75 -25 -19 0 -53 -11
-75 -25 -22 -13 -53 -25 -69 -25 -37 0 -366 -163 -397 -196 -13 -15 -44 -35
-69 -46 -65 -28 -315 -276 -345 -343 -16 -34 -55 -81 -120 -145 -65 -64 -105
-112 -120 -145 -15 -31 -52 -78 -100 -125 -47 -46 -85 -93 -97 -120 -10 -25
-43 -70 -73 -100 -43 -44 -70 -88 -135 -220 -45 -91 -86 -174 -92 -185 -7 -11
-18 -33 -25 -50 -8 -16 -19 -39 -25 -50 -32 -56 -38 -72 -38 -97 0 -15 -11
-48 -25 -74 -14 -26 -25 -62 -25 -80 0 -25 -10 -45 -37 -74 -57 -64 -103 -164
-103 -226 0 -43 -9 -69 -50 -148 -41 -80 -50 -105 -50 -149 0 -40 -8 -68 -36
-122 -20 -38 -39 -74 -44 -80 -4 -5 -10 -32 -13 -58 -4 -38 -12 -57 -38 -83
-19 -19 -45 -58 -59 -87 -21 -43 -34 -56 -75 -77 -38 -19 -54 -35 -68 -65 -11
-22 -32 -54 -48 -70 -26 -28 -99 -161 -99 -182 0 -5 -16 -24 -35 -43 -46 -45
-65 -88 -65 -149 0 -32 -7 -62 -17 -78 -16 -24 -18 -54 -18 -239 0 -166 3
-214 14 -228 8 -9 18 -40 22 -68 8 -49 15 -59 118 -163 83 -84 116 -126 140
-175 l30 -65 3 -205 c3 -192 4 -207 25 -235 19 -27 22 -48 27 -175 9 -235 10
-246 26 -265 12 -14 17 -63 23 -214 4 -108 7 -215 7 -239 1 -31 14 -68 45
-131 42 -81 45 -93 45 -166 0 -58 5 -85 19 -109 11 -18 21 -58 24 -98 3 -46
11 -76 26 -96 16 -22 21 -45 21 -89 0 -44 6 -68 25 -98 18 -30 24 -54 25 -95
0 -39 7 -69 25 -102 18 -33 25 -63 25 -100 0 -39 7 -64 25 -93 21 -34 24 -53
25 -124 0 -68 4 -90 22 -119 18 -29 21 -48 20 -107 -2 -59 1 -78 23 -118 14
-27 25 -61 25 -76 0 -15 11 -49 25 -75 31 -58 31 -76 4 -124 l-22 -38 47 -88
c26 -50 46 -101 46 -119 0 -18 11 -50 25 -72 13 -22 25 -55 25 -74 0 -18 10
-50 22 -69 15 -25 23 -55 25 -99 2 -43 9 -73 21 -91 11 -15 22 -49 26 -76 5
-43 14 -57 75 -121 40 -42 72 -85 75 -103 4 -16 21 -42 37 -58 36 -34 95 -153
103 -207 3 -24 17 -52 39 -76 19 -21 78 -126 131 -233 53 -107 108 -206 122
-219 13 -13 43 -62 66 -109 28 -58 62 -107 105 -153 53 -56 63 -73 63 -103 0
-42 18 -80 55 -114 15 -14 37 -47 50 -75 12 -27 36 -63 54 -79 17 -17 31 -34
31 -39 0 -21 73 -154 100 -182 16 -16 37 -50 48 -75 20 -47 81 -110 107 -110
24 0 83 -59 90 -88 3 -18 46 -68 111 -133 70 -68 113 -119 125 -149 12 -26 53
-78 99 -125 44 -44 86 -97 95 -118 10 -23 29 -46 51 -59 19 -11 42 -34 50 -52
9 -17 51 -67 94 -111 43 -44 88 -101 100 -126 27 -59 190 -220 245 -243 22
-10 54 -30 70 -45 17 -16 50 -39 75 -51 25 -12 59 -35 75 -51 17 -15 48 -35
69 -44 22 -9 67 -43 100 -75 34 -32 77 -65 97 -73 20 -8 54 -30 75 -49 22 -19
52 -39 67 -46 16 -7 50 -31 77 -53 31 -26 61 -42 86 -45 55 -8 262 -110 305
-151 26 -24 49 -36 79 -40 23 -3 103 -37 178 -74 132 -67 138 -69 211 -69 62
0 85 -5 123 -25 33 -17 63 -25 98 -25 35 0 65 -8 98 -25 38 -21 61 -25 127
-25 67 -1 86 -5 120 -25 38 -24 47 -25 211 -25 119 0 174 -4 182 -12 8 -8 12
-57 12 -154 0 -129 -2 -146 -22 -180 -19 -33 -22 -50 -20 -133 2 -86 -1 -101
-24 -148 -22 -42 -25 -59 -19 -90 4 -21 7 -67 5 -103 -1 -36 -5 -199 -7 -363
-4 -291 -3 -299 18 -337 l22 -38 -22 -35 c-12 -19 -21 -51 -21 -73 0 -60 -6
-64 -94 -57 -71 5 -83 10 -125 43 -25 20 -120 73 -210 118 -138 69 -172 82
-213 82 -33 0 -64 8 -96 25 -46 25 -50 25 -291 25 l-244 0 -81 -39 c-103 -49
-186 -131 -186 -183 0 -19 8 -44 17 -58 19 -26 83 -155 83 -165 0 -4 8 -19 19
-33 10 -15 22 -38 26 -52 4 -14 27 -46 51 -73 23 -26 45 -60 49 -75 8 -39 386
-416 438 -437 20 -8 54 -31 75 -49 20 -18 98 -63 173 -100 74 -36 146 -77 159
-91 29 -31 357 -195 391 -195 13 0 68 -23 122 -50 74 -37 110 -50 143 -50 24
0 67 -9 96 -21 46 -18 70 -20 196 -17 137 3 145 4 163 27 10 13 19 36 19 52 0
15 11 49 25 75 14 26 25 60 25 75 0 15 11 49 25 75 14 26 25 60 25 75 0 15 9
44 21 64 14 23 22 57 24 100 3 47 9 72 24 91 20 25 21 39 21 232 0 188 2 207
20 237 13 21 20 49 20 76 -2 107 17 244 38 284 18 33 22 56 22 138 0 85 3 104
25 145 23 44 25 56 25 198 0 142 -2 154 -25 198 -20 37 -25 62 -25 116 0 54 5
79 25 116 25 46 25 50 25 294 0 242 0 248 -24 293 -15 27 -26 67 -28 99 l-3
53 360 5 c352 5 361 6 396 27 30 19 51 23 115 23 65 0 87 4 126 25 41 22 60
25 147 25 87 0 106 3 147 25 26 14 60 25 77 25 16 0 44 9 61 19 17 10 51 22
75 26 24 4 58 16 75 26 17 10 43 19 57 19 15 0 147 60 295 134 220 111 277
143 314 181 52 53 88 75 125 75 33 0 60 14 108 56 46 42 93 45 133 11 23 -20
28 -33 33 -98 4 -42 13 -86 22 -100 10 -15 19 -58 23 -114 12 -181 20 -217 59
-290 32 -60 37 -78 37 -135 0 -38 -5 -71 -12 -78 -8 -8 -46 -12 -106 -12 -80
0 -100 3 -130 22 -30 19 -54 22 -171 26 -107 4 -144 9 -173 23 -31 16 -60 19
-173 19 -116 0 -141 -3 -175 -20 -24 -12 -60 -20 -92 -20 -106 -1 -136 -13
-202 -79 l-61 -61 -3 -123 c-2 -94 1 -128 12 -147 8 -14 26 -47 39 -75 30 -62
97 -127 157 -153 29 -13 78 -54 140 -117 66 -68 111 -104 147 -121 28 -12 54
-27 57 -33 4 -5 19 -12 35 -16 16 -3 51 -26 80 -50 28 -24 61 -47 73 -51 13
-4 41 -22 63 -41 23 -19 158 -92 300 -163 225 -113 265 -130 307 -130 32 0 66
-9 98 -25 33 -17 66 -25 99 -25 34 0 65 -8 97 -25 32 -17 63 -25 98 -25 35 0
67 -8 100 -25 43 -22 63 -25 150 -25 84 0 106 -3 131 -20 27 -18 47 -20 206
-20 197 0 185 -4 229 80 25 48 27 65 36 290 5 142 5 146 -20 193 -21 40 -26
62 -26 125 0 64 -4 84 -25 117 -22 36 -24 51 -25 145 0 94 -3 109 -25 145 -18
30 -24 54 -25 96 0 46 -7 70 -42 135 -38 72 -42 87 -47 174 -5 77 -11 101 -29
127 -12 17 -22 46 -22 65 0 18 -11 51 -25 73 -22 36 -24 51 -25 145 0 94 -3
109 -25 145 -21 34 -24 53 -25 125 -1 72 -4 91 -25 125 -22 36 -25 51 -25 144
0 87 -3 109 -20 137 -17 27 -20 46 -18 110 l3 78 50 27 c47 27 57 28 180 29
156 1 196 9 244 49 46 40 165 101 195 101 33 0 264 117 307 155 20 18 47 36
60 40 13 4 41 23 62 42 21 19 57 43 80 53 48 21 141 112 156 153 7 17 24 34
43 42 39 16 93 70 103 103 3 12 23 31 43 41 48 25 86 66 106 114 9 22 40 63
69 93 47 46 127 180 127 212 0 4 14 21 31 38 18 16 42 52 55 81 13 28 27 54
33 57 5 4 12 19 16 35 3 16 23 48 43 72 45 52 252 462 252 498 0 24 60 154 81
176 5 5 9 35 9 67 0 52 7 72 75 205 65 128 75 155 75 200 0 36 8 66 25 99 18
34 25 63 25 101 0 40 6 63 22 85 19 28 21 44 21 153 0 108 -2 126 -21 157 -18
28 -22 51 -22 110 0 60 -5 84 -24 120 -18 33 -25 65 -27 124 l-4 79 83 3 c68
2 89 -1 115 -17 41 -24 105 -35 159 -26 32 6 56 21 109 71 37 34 84 70 106 79
21 9 52 29 68 44 17 16 58 42 93 60 57 28 71 31 160 31 57 0 107 5 121 13 31
15 90 127 98 184 4 30 17 56 42 86 20 23 51 70 69 105 30 58 32 70 32 159 0
77 5 109 21 149 22 51 22 53 4 101 -10 26 -20 89 -24 138 -5 68 -11 99 -28
126 -13 20 -23 51 -23 68 0 47 -14 66 -61 85 -23 9 -67 41 -98 71 -40 38 -92
72 -172 112 -105 53 -120 58 -199 63 l-85 5 -5 210 c-4 188 -7 214 -25 240
-13 20 -22 55 -26 103 l-6 74 -124 125 c-72 72 -143 134 -169 147 -25 13 -58
31 -75 40 -22 12 -57 16 -134 16 -99 0 -108 -2 -178 -36 -63 -30 -77 -41 -90
-72 -8 -22 -68 -91 -146 -170 -124 -125 -138 -136 -241 -188 -59 -30 -117 -54
-127 -54 -37 0 -19 54 38 120 31 35 41 56 45 93 5 38 14 57 41 85 42 45 57 72
57 107 0 14 11 47 25 73 22 41 25 59 25 150 0 92 3 108 22 135 19 26 24 50 28
129 3 58 10 102 18 110 14 14 16 74 2 83 -16 10 -12 48 8 75 15 23 17 56 17
340 0 309 0 316 -22 350 -20 30 -23 48 -23 136 0 89 -3 107 -25 148 -22 41
-25 60 -25 149 0 91 -3 106 -25 142 -20 34 -24 53 -25 120 0 49 -6 90 -14 105
-31 56 -136 270 -136 277 0 5 -82 90 -183 191 -178 178 -184 183 -234 191 -39
6 -62 17 -98 49 -35 31 -58 43 -93 48 -26 3 -61 15 -78 25 -27 17 -53 19 -202
19 -149 0 -175 -2 -204 -19 -18 -10 -53 -22 -77 -25 -24 -4 -56 -15 -71 -26
-14 -10 -38 -22 -53 -25 -15 -4 -30 -11 -33 -17 -3 -5 -29 -19 -57 -32 -32
-14 -73 -45 -104 -79 l-53 -56 0 -157 c0 -152 -1 -159 -26 -202 -25 -42 -26
-49 -15 -92 9 -33 9 -54 1 -74 -6 -17 -10 -147 -10 -341 l0 -314 -25 -47 c-25
-46 -25 -50 -25 -290 0 -240 0 -244 -25 -290 -23 -44 -25 -56 -25 -197 0 -138
-2 -152 -22 -186 -20 -31 -23 -50 -24 -142 -1 -91 -4 -112 -22 -142 -16 -25
-22 -51 -22 -93 -1 -45 -7 -69 -25 -99 -19 -30 -25 -54 -25 -97 0 -46 -7 -69
-37 -125 -20 -37 -42 -79 -50 -93 -7 -14 -13 -38 -13 -53 0 -35 -24 -45 -60
-23 -22 12 -55 16 -152 16 -104 0 -129 3 -161 20 -20 11 -44 20 -52 20 -8 0
-32 -9 -52 -20 -31 -16 -57 -20 -138 -20 -80 0 -106 -4 -130 -19 -17 -10 -51
-21 -75 -25 -25 -3 -59 -15 -75 -26 -17 -11 -44 -20 -61 -20 -17 0 -52 -11
-78 -25 -26 -14 -59 -25 -74 -25 -15 0 -48 -11 -74 -25 -32 -17 -63 -25 -97
-25 -40 0 -68 -9 -128 -41 -43 -22 -91 -53 -108 -68 -16 -16 -41 -32 -55 -36
-14 -4 -36 -15 -50 -25 -14 -9 -39 -22 -57 -29 -17 -7 -42 -24 -55 -38 -12
-14 -68 -48 -123 -75 -55 -27 -113 -62 -130 -78 -16 -15 -51 -38 -76 -49 -59
-28 -117 -88 -149 -154 -21 -44 -34 -57 -80 -80 -73 -37 -127 -91 -155 -152
-29 -63 -75 -108 -106 -103 -17 2 -28 14 -39 45 -9 24 -30 57 -46 75 -17 18
-60 92 -94 163 -35 72 -78 147 -97 168 -36 41 -53 75 -53 110 0 31 -205 439
-235 467 -31 30 -195 357 -195 391 0 13 -41 105 -92 204 -81 161 -92 188 -98
251 -4 49 -13 81 -28 102 -17 23 -22 45 -22 89 0 44 -6 68 -25 98 -14 23 -25
56 -25 77 0 28 -10 48 -45 89 l-45 53 0 81 c0 64 -5 89 -21 120 -13 24 -25 69
-29 111 -5 51 -13 79 -28 99 -13 17 -22 42 -22 64 0 21 -11 53 -25 76 -13 22
-25 56 -25 75 0 19 -12 53 -25 75 -21 34 -25 52 -25 125 0 69 -4 90 -20 110
-14 18 -20 41 -20 80 0 38 -7 68 -22 95 -16 30 -23 65 -27 135 -5 76 -11 102
-29 127 -18 26 -22 44 -22 115 0 68 -4 89 -22 118 -15 23 -24 59 -28 107 -5
50 -13 79 -25 93 -13 14 -20 43 -24 93 -4 45 -13 84 -24 101 -13 19 -19 51
-21 114 -3 82 -5 92 -49 174 -47 87 -47 87 -47 186 l0 99 -50 97 c-42 82 -50
106 -50 153 0 39 -6 63 -20 83 -11 16 -23 50 -26 77 -4 26 -10 53 -14 58 -25
32 -80 154 -80 177 0 37 -66 165 -112 215 -21 24 -38 49 -38 58 0 8 -31 49
-69 90 -38 42 -72 88 -76 103 -3 15 -44 65 -90 112 -45 47 -90 103 -99 125
-24 56 -286 320 -346 348 -24 11 -70 45 -102 75 -48 45 -100 76 -315 184 -220
110 -267 130 -318 135 -33 3 -71 13 -85 22 -20 13 -59 16 -220 18 -107 1 -204
-1 -215 -4z m372 -377 c53 -47 75 -56 133 -56 35 0 65 -8 98 -25 26 -14 59
-25 73 -25 35 0 254 -113 301 -156 21 -18 45 -34 52 -34 8 0 48 -29 88 -65 40
-36 93 -75 118 -87 35 -18 50 -34 68 -71 15 -32 33 -53 56 -63 23 -12 41 -33
64 -79 18 -34 32 -66 32 -71 0 -5 36 -45 81 -89 67 -67 88 -96 126 -175 25
-52 59 -109 75 -126 39 -41 148 -261 148 -298 0 -16 10 -44 21 -63 15 -24 22
-54 24 -98 1 -44 8 -73 23 -98 17 -27 22 -50 22 -109 0 -57 5 -83 22 -113 18
-33 23 -63 27 -160 5 -105 9 -124 29 -149 17 -23 22 -42 22 -90 0 -47 6 -70
25 -101 13 -22 25 -55 25 -73 0 -18 11 -52 24 -75 19 -32 24 -56 24 -99 0 -42
5 -64 21 -86 17 -25 21 -44 21 -110 0 -65 4 -87 25 -126 20 -38 25 -61 25
-124 0 -63 4 -84 22 -112 19 -30 24 -53 28 -155 4 -105 8 -124 28 -149 13 -17
22 -43 22 -63 0 -19 11 -55 25 -81 14 -26 25 -60 25 -77 0 -16 9 -45 20 -63
13 -22 20 -50 20 -86 0 -37 7 -67 25 -100 20 -38 25 -61 25 -124 0 -64 4 -84
25 -117 18 -30 24 -54 25 -96 0 -47 8 -71 50 -153 30 -59 50 -110 50 -130 0
-19 9 -45 21 -60 15 -19 21 -44 24 -91 2 -43 10 -77 24 -100 14 -25 21 -53 21
-89 0 -37 7 -67 25 -100 14 -26 25 -59 25 -74 0 -15 11 -48 25 -74 14 -26 25
-60 25 -75 0 -15 7 -39 14 -53 8 -14 51 -99 96 -190 45 -91 88 -176 95 -190 7
-14 45 -90 85 -170 40 -80 87 -161 105 -180 24 -26 34 -47 38 -82 4 -38 13
-57 50 -97 24 -28 48 -63 52 -78 3 -15 15 -39 26 -54 10 -15 19 -31 19 -36 0
-4 32 -70 70 -146 69 -136 70 -140 70 -215 0 -64 4 -84 25 -117 13 -22 25 -54
25 -70 0 -53 113 -262 174 -325 30 -30 62 -73 71 -95 9 -22 32 -56 51 -76 26
-27 37 -48 43 -88 7 -47 15 -59 90 -135 46 -48 90 -103 101 -129 25 -56 58
-71 140 -65 73 5 99 26 107 86 4 32 -1 54 -27 109 -19 37 -49 85 -68 107 -19
21 -41 55 -49 75 -8 20 -33 55 -54 78 -45 49 -51 90 -19 138 11 16 22 50 26
75 3 25 14 59 24 75 10 17 20 50 23 74 4 32 15 53 41 80 19 20 42 54 51 76 23
55 414 450 471 475 23 10 56 31 75 48 19 16 52 38 74 49 22 11 54 28 70 37 17
9 35 16 41 16 5 0 23 14 40 31 36 38 75 59 109 59 14 0 66 20 116 45 68 34
102 45 137 45 38 0 75 14 198 75 l152 75 282 0 282 0 34 -34 c19 -19 34 -43
34 -53 0 -11 -22 -64 -50 -118 -27 -54 -50 -110 -50 -123 0 -29 -104 -244
-128 -264 -28 -24 -147 -78 -172 -78 -13 0 -86 -31 -162 -70 -76 -38 -151 -70
-166 -70 -15 0 -48 -11 -74 -25 -36 -19 -62 -25 -111 -25 -60 0 -72 5 -251 95
-199 100 -237 111 -294 81 -59 -31 -76 -61 -80 -142 -5 -87 8 -116 66 -139 20
-9 53 -32 73 -51 24 -24 48 -36 75 -40 45 -6 244 -102 252 -122 2 -8 -20 -39
-51 -70 -31 -31 -65 -77 -75 -102 -11 -25 -32 -56 -47 -70 -15 -14 -35 -41
-46 -61 -10 -20 -34 -46 -53 -57 -21 -13 -42 -36 -51 -58 -8 -20 -33 -56 -55
-80 -32 -35 -40 -51 -40 -81 0 -23 -10 -54 -25 -78 -21 -35 -24 -52 -25 -135
0 -74 4 -101 18 -122 23 -34 62 -65 87 -68 44 -5 58 2 110 51 42 39 68 78 114
171 40 78 61 133 61 155 0 29 10 46 64 101 35 37 71 85 80 107 20 49 256 290
303 311 18 8 65 14 109 14 l77 0 43 44 c27 27 44 53 44 67 0 42 12 68 32 75
11 3 43 25 72 48 50 41 54 43 143 49 66 5 101 12 125 27 29 18 50 20 183 20
141 0 153 2 197 25 l47 25 430 0 430 0 47 -25 c32 -17 63 -25 98 -25 32 0 62
-7 82 -19 17 -10 51 -22 75 -26 24 -4 58 -16 75 -26 17 -10 44 -19 60 -19 16
0 83 -27 148 -60 118 -58 123 -62 273 -212 l153 -153 79 -160 c43 -88 82 -178
86 -200 4 -22 15 -54 26 -71 10 -17 19 -45 19 -61 0 -17 11 -51 25 -77 20 -38
25 -61 25 -124 0 -64 4 -84 25 -117 23 -38 24 -48 25 -203 0 -155 -1 -165 -25
-210 -18 -33 -25 -63 -25 -102 -1 -41 -7 -65 -25 -95 -14 -22 -25 -53 -25 -70
0 -25 -54 -147 -80 -180 -4 -5 -10 -32 -13 -58 -2 -26 -12 -56 -21 -66 -9 -10
-20 -40 -25 -67 -4 -27 -17 -67 -29 -89 -12 -22 -22 -54 -22 -72 0 -22 -11
-45 -38 -76 -32 -36 -152 -259 -152 -282 0 -4 -9 -19 -19 -34 -11 -15 -23 -39
-26 -54 -4 -15 -27 -49 -51 -76 -24 -27 -44 -52 -44 -56 0 -28 -80 -159 -125
-205 -30 -30 -61 -73 -70 -95 -24 -60 -402 -437 -475 -475 -30 -16 -75 -49
-100 -75 -37 -37 -93 -70 -305 -175 -143 -72 -271 -130 -285 -130 -14 0 -46
-11 -72 -25 -47 -25 -49 -25 -313 -25 -303 0 -291 3 -373 -83 l-52 -56 0 -80
c0 -76 2 -82 32 -117 18 -20 51 -45 74 -54 67 -29 84 -54 84 -124 0 -47 6 -70
25 -101 23 -38 24 -48 25 -195 0 -147 1 -157 25 -195 21 -34 24 -53 25 -125 0
-68 4 -91 20 -115 13 -20 20 -47 20 -81 0 -35 8 -66 25 -98 14 -26 25 -59 25
-74 0 -15 10 -46 21 -67 13 -24 25 -69 29 -111 4 -47 14 -81 27 -100 11 -16
24 -40 28 -54 4 -14 14 -33 23 -43 9 -10 18 -46 21 -90 4 -45 13 -84 25 -101
13 -21 18 -50 20 -115 1 -68 6 -94 21 -117 12 -18 22 -55 25 -100 5 -50 13
-80 28 -102 18 -25 22 -44 22 -110 0 -65 4 -87 25 -126 14 -26 25 -53 25 -61
0 -51 -121 -63 -202 -20 -32 17 -63 25 -97 25 -34 0 -65 8 -97 25 -33 17 -63
25 -99 25 -43 0 -69 8 -137 44 -75 38 -93 44 -168 48 l-85 5 -305 153 c-259
130 -313 161 -360 206 -30 29 -72 60 -93 69 -22 9 -70 45 -108 81 -37 35 -75
64 -84 64 -22 0 -115 89 -115 110 0 10 7 21 16 24 9 3 115 6 237 6 218 0 223
0 269 -25 26 -14 59 -25 73 -25 14 0 47 -11 73 -25 38 -20 61 -25 124 -25 63
0 86 -5 124 -25 26 -14 58 -25 71 -25 13 0 59 -18 103 -40 44 -22 86 -40 94
-40 8 0 39 13 70 28 51 25 60 35 91 96 43 82 45 128 10 194 -14 26 -25 60 -25
77 0 16 -9 45 -20 63 -11 17 -23 51 -26 75 -4 23 -15 56 -25 73 -11 17 -19 45
-19 61 0 17 -11 51 -25 77 -14 26 -25 59 -25 74 0 15 -11 48 -25 74 -18 33
-25 63 -25 100 0 39 -7 64 -25 93 -21 34 -24 53 -25 125 -1 72 -4 91 -25 125
-21 34 -25 52 -25 123 0 81 0 83 -38 125 -21 23 -56 78 -77 122 -53 112 -57
115 -128 115 -59 0 -59 0 -125 -63 -59 -56 -95 -77 -302 -180 -130 -64 -246
-127 -259 -141 -30 -32 -232 -132 -286 -142 -22 -4 -78 -27 -124 -51 -66 -34
-94 -43 -134 -43 -40 0 -68 -9 -141 -47 -82 -43 -100 -48 -186 -55 -127 -11
-150 -11 -181 -3 -19 5 -42 -1 -81 -19 -50 -24 -66 -26 -179 -26 -107 0 -128
-3 -154 -20 -29 -19 -49 -20 -878 -20 -791 0 -850 1 -874 18 -18 11 -57 19
-118 23 -64 4 -101 12 -130 28 -31 16 -57 21 -115 21 -61 0 -84 5 -122 25 -32
17 -63 25 -97 25 -42 0 -74 12 -219 85 -93 47 -177 95 -188 106 -10 12 -39 31
-64 44 -25 12 -58 30 -75 39 -16 9 -42 16 -57 16 -14 0 -100 37 -190 82 -147
73 -171 89 -243 159 -44 43 -96 85 -117 93 -20 9 -57 34 -83 56 -25 22 -53 40
-61 40 -7 0 -46 29 -85 65 -39 36 -88 72 -108 81 -50 20 -218 190 -227 227 -4
18 -42 67 -100 128 -52 54 -94 105 -94 115 0 9 -50 67 -110 129 -64 65 -117
129 -126 151 -9 22 -42 66 -73 99 -32 33 -67 80 -78 105 -14 30 -63 86 -143
165 -86 85 -128 135 -144 170 -13 28 -35 61 -50 75 -15 14 -45 62 -67 109 -22
46 -57 104 -78 130 -22 25 -42 57 -46 71 -4 14 -22 41 -40 60 -18 19 -53 78
-78 130 -32 66 -61 110 -96 144 -43 43 -71 92 -195 341 -80 160 -157 302 -171
315 -15 14 -44 62 -66 109 -22 46 -58 105 -80 131 -39 46 -39 47 -39 131 0 72
-4 90 -25 124 -13 22 -25 54 -25 70 0 18 -28 86 -67 160 -65 127 -67 132 -72
225 -5 76 -11 101 -29 127 -12 17 -22 46 -22 65 0 18 -11 51 -25 73 -18 30
-25 54 -25 100 0 46 -7 70 -25 100 -14 23 -25 55 -25 76 0 22 -9 47 -22 65
-21 25 -23 41 -25 141 -1 95 -4 118 -22 146 -18 29 -21 50 -21 134 l0 99 -50
99 c-40 80 -50 109 -50 149 0 35 -8 66 -25 98 -17 32 -25 63 -25 97 0 27 -4
61 -10 76 -7 17 -6 39 2 70 11 41 10 47 -22 110 -26 51 -31 68 -21 78 9 9 18
8 42 -6 37 -21 77 -21 103 -2 11 8 34 15 50 15 17 0 52 11 78 25 33 17 63 25
98 25 35 0 65 8 98 25 26 14 59 25 75 25 15 0 49 11 75 25 38 20 61 25 120 25
51 0 84 6 110 19 20 10 55 21 77 25 22 4 55 16 73 27 18 10 46 19 61 19 15 0
49 11 75 25 26 14 60 25 75 25 15 0 49 11 75 25 26 14 59 25 74 25 15 0 66 20
113 44 48 24 104 46 125 50 22 4 78 27 127 52 48 24 98 44 111 44 13 0 68 22
123 50 54 27 110 50 125 50 15 0 66 20 112 44 47 24 105 47 128 50 24 4 57 15
73 26 17 11 44 20 60 20 17 0 51 11 77 25 26 14 60 25 75 25 16 0 49 11 75 25
26 14 59 25 73 25 14 0 64 20 112 44 49 24 105 47 125 50 21 4 140 58 265 121
137 69 244 117 272 121 31 5 56 18 85 43 23 21 103 68 180 105 76 38 153 81
171 97 18 16 105 65 192 109 134 67 166 80 208 80 73 0 177 54 249 129 l56 60
0 71 c0 82 -7 99 -64 158 -64 68 -73 69 -175 17 -48 -25 -99 -45 -114 -45 -34
0 -243 -105 -282 -141 -39 -37 -262 -149 -297 -149 -37 0 -458 -213 -493 -250
-16 -16 -33 -30 -38 -30 -6 0 -55 -22 -109 -50 -54 -27 -109 -50 -122 -50 -14
0 -68 -22 -123 -50 -54 -27 -111 -50 -128 -50 -16 0 -45 -9 -63 -20 -17 -11
-51 -23 -75 -26 -23 -4 -55 -14 -72 -24 -16 -10 -49 -20 -72 -24 -24 -3 -58
-15 -75 -26 -18 -11 -47 -20 -63 -20 -17 0 -51 -11 -77 -25 -26 -14 -58 -25
-72 -25 -33 0 -163 -66 -209 -107 -29 -26 -46 -33 -80 -33 -61 0 -110 -16
-138 -46 -31 -34 -71 -54 -106 -54 -15 0 -46 -11 -68 -25 -22 -13 -54 -25 -72
-25 -18 0 -53 -11 -79 -25 -26 -14 -60 -25 -77 -25 -16 0 -44 -8 -61 -19 -17
-10 -49 -22 -71 -25 -22 -4 -79 -27 -128 -52 -48 -24 -98 -44 -112 -44 -14 0
-47 -11 -73 -25 -32 -17 -63 -25 -97 -25 -33 0 -67 -9 -100 -25 -27 -13 -63
-25 -79 -25 -16 0 -44 -9 -63 -21 -20 -13 -58 -23 -96 -26 -56 -5 -120 -30
-212 -80 -71 -39 -128 -63 -153 -63 -35 0 -68 -23 -87 -61 -20 -39 -35 -37
-35 5 0 18 -11 54 -25 80 -23 44 -25 57 -25 193 0 129 -2 151 -22 189 -21 43
-21 44 -3 83 17 39 17 41 -4 76 -19 33 -21 50 -21 224 0 201 2 211 51 211 14
0 47 11 73 25 32 17 63 25 97 25 33 0 66 8 99 25 33 17 66 25 98 25 42 0 76
13 228 90 98 49 187 90 197 90 15 0 17 -13 17 -141 l0 -142 108 -109 c59 -60
122 -116 140 -123 18 -8 55 -33 83 -57 l51 -43 147 0 c134 0 149 2 181 22 32
21 47 23 185 23 141 0 153 2 197 25 26 14 59 25 73 25 37 0 62 15 130 80 33
31 71 61 85 65 50 15 90 56 125 128 20 39 38 90 42 112 3 22 15 54 25 70 19
32 24 85 9 100 -6 6 -32 55 -60 110 -27 55 -60 110 -73 121 -12 12 -58 39
-101 59 -70 34 -84 37 -136 32 -32 -2 -72 -14 -91 -26 -19 -11 -49 -21 -65
-21 -17 0 -51 -11 -77 -25 -26 -14 -59 -25 -73 -25 -14 0 -47 -11 -73 -25 -26
-14 -61 -25 -78 -25 -43 0 -109 -50 -123 -93 -14 -42 -4 -72 35 -108 46 -42
68 -49 152 -49 65 0 87 4 126 25 43 23 58 25 165 25 93 0 121 -3 131 -15 17
-20 5 -62 -20 -70 -11 -3 -41 -23 -67 -44 -27 -20 -76 -52 -111 -69 -58 -29
-70 -32 -160 -32 -84 0 -103 -3 -144 -25 -41 -22 -60 -25 -144 -25 l-96 0 -74
72 c-41 40 -77 83 -81 96 -4 16 3 42 21 77 14 29 26 66 26 83 0 22 11 44 34
70 47 52 156 267 156 307 0 29 42 103 68 119 6 3 29 45 52 93 28 58 61 107 96
143 29 30 60 73 69 95 9 22 32 56 50 75 19 19 41 53 51 75 9 22 34 59 55 82
24 27 39 53 40 70 4 98 -14 123 -90 131 -96 9 -117 -1 -225 -106 -69 -68 -105
-112 -122 -148 -26 -60 -70 -100 -90 -83 -7 6 -47 80 -90 165 -69 140 -80 156
-113 170 -47 20 -70 41 -87 84 -24 56 -109 135 -190 175 -64 31 -82 35 -148
35 -60 0 -83 5 -113 23 -34 20 -55 23 -203 27 l-165 5 4 80 c2 57 9 87 22 106
10 14 21 46 25 70 6 43 45 134 78 180 9 13 16 38 16 56 0 29 21 83 63 158 31
58 37 72 37 95 0 37 113 260 149 294 16 16 33 42 36 57 4 16 26 50 50 77 24
27 47 60 50 75 4 14 38 60 76 102 38 41 69 82 69 91 0 8 42 59 94 113 58 61
96 110 100 128 5 20 77 100 245 267 236 236 239 239 291 247 38 6 62 17 89 42
56 51 155 95 226 100 37 3 74 13 95 26 24 14 52 21 90 21 41 0 65 6 95 25 22
13 56 25 75 25 19 0 53 11 75 25 38 23 48 24 192 25 143 0 155 2 199 25 38 20
62 25 123 25 55 1 85 6 111 20 30 16 57 19 187 20 l153 0 37 -34z m7399 -2631
c26 -14 60 -25 75 -25 15 0 49 -11 75 -25 26 -14 58 -25 71 -25 13 0 45 -11
71 -25 26 -14 52 -25 58 -25 16 0 114 -106 114 -124 0 -8 20 -38 44 -66 33
-38 46 -63 51 -98 4 -26 15 -61 26 -78 13 -21 19 -50 19 -86 0 -39 7 -68 25
-102 17 -33 25 -63 25 -99 0 -38 7 -63 25 -92 23 -38 24 -48 25 -195 0 -147 1
-157 25 -195 l24 -40 1 -355 0 -355 -25 -40 c-18 -30 -25 -54 -25 -100 0 -46
-7 -70 -25 -100 -14 -22 -25 -55 -25 -73 0 -19 -9 -47 -21 -63 -11 -16 -24
-51 -28 -77 -4 -27 -15 -59 -24 -73 -9 -13 -17 -36 -17 -52 0 -40 -23 -88 -58
-121 -17 -16 -34 -41 -37 -56 -3 -15 -26 -50 -50 -79 -24 -28 -47 -61 -51 -74
-3 -12 -15 -33 -24 -47 -10 -14 -21 -44 -25 -65 -13 -78 -56 -158 -121 -226
-67 -70 -80 -99 -71 -156 11 -65 34 -77 139 -78 57 0 106 5 125 14 30 12 37
11 105 -23 85 -42 95 -43 147 -16 22 11 58 22 81 26 28 5 57 20 84 43 23 20
103 67 178 104 107 53 141 75 156 100 14 23 47 46 121 85 56 28 112 52 126 52
45 0 72 17 88 58 19 46 61 83 85 75 35 -12 92 -77 92 -103 0 -33 -17 -48 -102
-88 -58 -28 -77 -32 -149 -32 l-82 0 -43 -44 c-60 -59 -60 -91 0 -154 l45 -47
122 -3 c160 -5 181 0 239 54 48 45 70 55 70 31 0 -14 -85 -183 -102 -204 -7
-9 -50 -13 -148 -13 -126 0 -143 2 -192 25 -34 16 -71 25 -103 25 -33 0 -60 7
-80 20 -21 14 -47 20 -87 20 -55 0 -59 -2 -117 -56 -127 -117 -103 -220 70
-303 36 -17 77 -31 92 -31 14 0 47 -11 73 -25 32 -17 63 -25 98 -25 35 0 62
-7 86 -22 28 -17 57 -23 150 -28 63 -4 129 -13 147 -20 28 -12 37 -12 68 3 20
9 46 17 59 17 12 0 45 11 72 25 46 24 58 25 216 25 l166 0 68 -36 c38 -20 74
-43 80 -52 23 -31 30 -168 17 -329 -8 -99 -9 -103 -44 -140 -20 -21 -43 -51
-50 -68 -11 -23 -22 -31 -46 -33 -26 -3 -41 5 -78 39 -25 23 -54 61 -64 85
-22 48 -45 64 -95 64 -83 0 -111 -38 -104 -144 4 -59 7 -67 51 -116 76 -84 63
-127 -55 -185 -95 -46 -156 -48 -199 -6 -21 21 -29 39 -29 64 0 49 -66 176
-97 188 -57 21 -123 4 -142 -38 -6 -13 -11 -50 -11 -82 0 -48 7 -71 45 -146
51 -99 49 -115 -16 -115 -44 0 -69 21 -69 59 0 35 -60 155 -98 195 -17 17 -38
49 -47 71 -9 22 -51 75 -95 120 -46 47 -87 99 -98 125 -31 69 -179 210 -275
260 -42 22 -89 40 -103 40 -15 0 -43 9 -63 19 -130 69 -245 121 -267 121 -13
0 -47 11 -74 25 -27 14 -61 25 -75 25 -14 0 -65 21 -113 46 -64 34 -104 48
-152 54 -36 4 -80 14 -97 21 -28 11 -38 11 -65 -1 -18 -8 -58 -14 -88 -14 -30
0 -70 6 -87 14 -29 13 -37 12 -65 0 -27 -12 -89 -15 -313 -15 l-280 0 3 53 c2
32 12 70 27 99 14 25 25 60 25 77 0 17 9 45 20 61 11 17 20 44 20 60 0 17 11
51 25 77 14 26 25 62 25 80 0 18 12 51 25 73 14 22 25 53 25 68 0 15 11 49 25
75 14 26 25 59 25 74 0 15 21 66 46 115 37 71 46 98 46 138 0 34 7 66 24 97
21 41 24 61 24 150 0 92 3 107 25 143 18 30 24 54 25 95 0 37 7 69 22 98 l23
42 -22 40 c-29 49 -28 65 2 115 23 37 25 50 25 167 0 116 2 131 25 174 25 46
25 50 25 292 0 236 1 246 23 281 21 34 22 47 22 206 0 158 -2 172 -22 204
l-22 35 22 35 c20 33 22 50 24 190 2 154 2 154 37 225 42 86 70 114 161 160
64 33 77 36 157 36 74 0 94 -4 134 -25z m-10058 -290 c26 -14 52 -25 58 -25
16 0 74 -67 74 -85 0 -7 20 -37 44 -65 24 -29 47 -64 51 -78 4 -15 14 -35 22
-45 16 -17 36 -108 35 -157 -3 -111 -15 -158 -65 -259 -39 -78 -60 -108 -82
-120 -16 -9 -67 -51 -111 -94 -85 -82 -194 -147 -244 -147 -15 0 -88 -31 -164
-70 -136 -69 -139 -70 -217 -70 -57 0 -79 4 -79 13 0 6 37 30 83 52 74 37 84
45 107 90 21 41 34 54 77 75 61 29 179 140 199 187 8 18 14 55 14 84 0 35 6
60 21 80 14 21 21 48 24 94 2 39 9 75 19 90 10 15 16 43 15 68 0 23 2 61 6 84
6 33 3 47 -12 70 -62 91 -92 210 -61 241 7 7 39 12 75 12 49 0 75 -6 111 -25z
m5076 -9775 c32 -12 34 -46 6 -92 -18 -31 -20 -51 -20 -263 0 -213 2 -232 20
-255 25 -32 25 -67 0 -105 -31 -47 -28 -178 5 -241 23 -42 25 -58 25 -164 0
-106 -2 -122 -25 -164 -22 -41 -25 -60 -25 -149 0 -91 -3 -106 -25 -142 -24
-39 -24 -44 -25 -259 0 -136 -4 -233 -12 -257 -8 -30 -8 -48 1 -79 11 -37 10
-44 -14 -83 -21 -37 -25 -56 -25 -126 0 -66 -4 -88 -20 -111 -10 -15 -22 -47
-26 -71 -4 -24 -14 -57 -24 -74 -10 -16 -21 -52 -25 -78 -5 -40 -11 -50 -33
-58 -38 -15 -122 -5 -163 20 -23 14 -51 21 -86 21 -44 0 -71 10 -187 69 -74
37 -152 71 -174 75 -51 8 -135 50 -192 96 -25 20 -81 53 -125 74 -62 29 -98
56 -160 116 -45 44 -98 86 -120 95 -53 22 -123 90 -146 143 -10 24 -44 69 -74
101 -57 60 -119 168 -113 198 7 35 47 44 173 41 103 -3 125 -7 150 -25 17 -11
41 -24 54 -28 14 -4 38 -16 55 -26 17 -11 43 -19 58 -19 15 0 123 -48 240
-106 173 -87 223 -117 268 -160 30 -29 72 -60 93 -69 26 -11 42 -25 49 -46 14
-41 35 -49 132 -49 76 0 86 2 100 22 9 12 16 36 16 53 0 16 11 48 25 70 l24
40 0 385 c0 356 -1 388 -18 425 -17 35 -18 42 -5 67 19 37 18 65 -6 95 -26 33
-25 49 5 98 25 39 25 43 25 265 0 211 1 227 21 259 18 31 21 52 23 170 1 121
3 139 22 166 12 17 24 52 28 78 6 36 13 50 29 57 30 12 190 12 221 0z"/>
<path d="M7151 15064 c-30 -16 -60 -24 -92 -24 -38 0 -72 -11 -156 -53 -60
-29 -132 -72 -161 -95 -30 -23 -60 -42 -67 -42 -8 0 -35 -19 -61 -41 -27 -23
-66 -49 -89 -59 -50 -22 -228 -202 -248 -250 -8 -20 -33 -57 -56 -83 -32 -37
-41 -56 -41 -85 0 -21 -11 -54 -25 -77 -14 -23 -25 -55 -25 -76 0 -22 -9 -47
-21 -63 -12 -15 -24 -48 -27 -74 -2 -26 -14 -60 -25 -75 -13 -19 -21 -51 -24
-95 -3 -37 -11 -76 -18 -88 -8 -12 -16 -73 -20 -147 l-8 -126 36 -73 c31 -61
59 -96 179 -214 135 -133 149 -144 254 -196 61 -31 130 -59 154 -63 24 -4 57
-16 74 -26 17 -10 44 -19 59 -19 15 0 50 -11 77 -25 41 -21 63 -25 135 -25 72
0 93 4 133 25 26 14 60 25 76 25 16 0 43 9 60 19 17 10 51 22 75 26 51 8 163
65 206 104 17 15 89 56 160 91 72 35 146 78 167 96 20 18 56 41 80 52 23 11
73 51 110 88 57 59 79 93 152 239 l86 170 0 176 c0 169 -1 178 -25 223 -20 38
-25 61 -25 120 0 66 -4 82 -40 153 -21 43 -51 90 -66 103 -14 14 -35 45 -46
70 -11 25 -32 59 -48 75 -16 17 -36 47 -45 68 -11 28 -26 43 -52 54 -21 8 -66
41 -101 74 -67 61 -107 79 -177 79 -23 0 -53 9 -70 20 -24 16 -47 20 -110 20
-66 0 -88 4 -127 25 -60 32 -118 32 -177 -1z m408 -350 c42 -19 90 -48 106
-64 17 -15 51 -38 76 -49 25 -12 58 -34 72 -49 36 -38 97 -161 97 -197 0 -16
11 -48 25 -70 23 -38 24 -49 25 -186 0 -135 -2 -148 -22 -174 -12 -16 -23 -47
-26 -76 -4 -39 -12 -58 -42 -92 -21 -23 -45 -58 -53 -77 -24 -57 -82 -107
-180 -154 -51 -25 -103 -56 -116 -70 -32 -34 -361 -196 -397 -196 -16 0 -42
-9 -59 -20 -43 -28 -170 -28 -225 0 -22 11 -59 20 -84 20 -58 0 -83 10 -138
57 -25 21 -54 43 -64 50 -39 25 8 33 201 33 l190 0 70 36 c86 43 150 103 180
169 13 28 35 61 49 74 35 33 96 155 96 194 0 18 12 50 25 72 14 22 25 55 25
73 0 19 10 48 22 64 15 21 24 53 28 102 4 42 16 87 29 111 16 31 21 56 21 120
0 47 -6 90 -13 105 -8 14 -18 34 -25 45 -6 11 -17 34 -25 50 -7 17 -19 39 -27
51 -18 29 -6 71 23 77 47 9 63 6 136 -29z"/>
<path d="M8613 10976 c-26 -23 -28 -29 -28 -98 1 -57 6 -82 22 -108 11 -19 23
-54 26 -77 3 -23 14 -55 25 -70 11 -15 23 -39 27 -53 4 -14 16 -37 26 -52 11
-14 19 -40 19 -56 0 -17 22 -74 50 -129 42 -82 50 -107 50 -153 0 -38 6 -64
20 -85 14 -21 20 -47 20 -85 0 -40 7 -68 25 -102 18 -33 25 -63 25 -100 0 -39
7 -64 25 -93 13 -22 25 -56 25 -75 0 -19 11 -53 25 -75 13 -22 25 -56 25 -75
0 -19 12 -53 25 -75 19 -30 25 -54 25 -98 0 -41 6 -67 19 -85 10 -15 22 -49
26 -77 4 -27 15 -62 26 -76 13 -19 19 -44 19 -82 0 -38 7 -67 25 -101 14 -26
25 -59 25 -74 0 -15 11 -48 25 -74 20 -39 25 -61 25 -125 0 -65 4 -84 25 -118
22 -36 24 -51 25 -145 0 -89 3 -110 21 -139 14 -23 22 -55 23 -92 3 -50 14
-81 90 -231 103 -205 116 -218 220 -228 42 -4 87 -16 111 -29 34 -18 55 -21
163 -21 105 0 130 -3 156 -19 24 -14 56 -20 142 -23 92 -4 117 -8 146 -26 19
-12 48 -22 63 -22 71 0 244 -115 229 -153 -3 -8 -35 -28 -72 -45 -59 -27 -80
-32 -174 -35 -77 -3 -113 -8 -132 -20 -31 -21 -60 -22 -89 -3 -12 8 -41 17
-65 21 -23 4 -82 27 -130 51 -48 24 -98 44 -111 44 -13 0 -42 9 -65 21 l-41
20 -66 -30 c-74 -33 -89 -57 -89 -137 0 -58 14 -90 60 -141 37 -39 40 -47 40
-100 0 -43 7 -71 25 -105 22 -41 25 -60 25 -147 0 -55 -4 -102 -9 -105 -20
-13 -63 41 -110 137 -27 56 -63 115 -80 131 -16 16 -33 41 -36 57 -9 41 -114
137 -192 176 -58 28 -77 33 -127 31 -39 -2 -60 1 -63 9 -2 7 13 31 35 55 49
55 55 72 37 108 -22 43 -19 63 20 100 45 44 44 66 -5 160 -22 41 -40 88 -40
105 0 16 -11 48 -25 70 -13 22 -25 54 -25 72 0 19 -28 86 -70 168 -59 116 -70
144 -70 187 0 41 -9 69 -46 142 -26 50 -51 113 -55 140 -5 27 -15 56 -24 66
-9 10 -19 39 -24 66 -4 27 -17 67 -29 89 -15 27 -22 57 -22 94 0 35 -7 65 -19
85 -10 17 -22 51 -25 76 -4 25 -15 59 -26 75 -14 21 -20 47 -20 85 0 30 -7 66
-14 80 -68 122 -86 167 -86 220 -1 41 -7 66 -25 95 -19 31 -25 54 -25 101 0
45 -5 68 -19 85 -10 13 -22 35 -26 49 -4 14 -16 37 -26 52 -16 21 -19 45 -19
130 l0 104 -75 147 -75 148 0 104 0 104 -40 46 c-22 26 -47 63 -56 83 -20 49
-110 139 -152 153 -18 6 -49 8 -68 4 -40 -7 -102 -57 -115 -93 -13 -34 4 -82
42 -118 17 -16 39 -47 49 -70 10 -23 32 -57 50 -77 28 -33 100 -163 100 -184
0 -4 9 -19 20 -33 11 -14 20 -41 20 -60 0 -19 11 -53 25 -75 13 -22 25 -56 25
-75 0 -19 11 -53 25 -75 21 -34 24 -53 25 -125 0 -69 4 -90 20 -110 14 -18 20
-41 20 -81 0 -40 7 -69 25 -103 14 -26 25 -59 25 -74 0 -15 10 -46 21 -67 13
-24 25 -69 29 -111 4 -49 13 -81 28 -102 17 -23 22 -45 22 -89 0 -44 6 -68 25
-98 13 -22 25 -55 25 -74 0 -18 10 -50 22 -69 15 -25 23 -55 25 -100 2 -43 9
-75 23 -97 15 -25 20 -50 20 -107 0 -61 5 -84 25 -122 14 -26 25 -60 25 -75 0
-15 11 -49 25 -75 14 -26 25 -59 25 -74 0 -15 10 -45 22 -67 12 -22 25 -62 29
-89 5 -27 15 -56 24 -66 9 -10 19 -40 24 -68 4 -28 15 -62 24 -76 10 -14 17
-38 17 -54 0 -16 11 -50 25 -76 14 -26 25 -60 25 -75 0 -15 11 -49 25 -75 14
-26 25 -55 25 -65 0 -29 -64 -147 -103 -191 -27 -29 -37 -49 -37 -73 0 -18
-11 -53 -25 -79 -18 -33 -25 -63 -25 -100 0 -35 -7 -64 -20 -85 -11 -18 -19
-51 -20 -75 0 -24 -3 -134 -6 -246 l-5 -203 25 -44 c15 -25 26 -59 26 -80 0
-27 9 -45 39 -78 21 -23 47 -60 57 -82 33 -69 150 -117 198 -80 13 10 44 15
95 15 63 0 84 5 140 32 36 17 78 40 93 50 26 18 108 165 108 194 0 29 34 12
98 -50 37 -34 95 -77 130 -95 59 -29 69 -31 178 -31 63 0 124 4 134 10 24 13
40 62 40 123 0 44 4 55 40 93 45 49 49 69 20 116 -13 22 -20 51 -20 88 0 37
-7 66 -20 88 -23 38 -29 169 -8 190 7 7 42 12 85 12 60 0 83 5 121 25 43 23
58 25 170 25 109 0 127 3 170 24 121 61 300 150 327 163 55 26 59 29 68 57 7
22 4 38 -17 78 -21 41 -26 63 -26 127 0 89 -12 113 -68 137 -20 8 -62 39 -92
68 -56 55 -186 126 -229 126 -12 0 -38 8 -59 19 -20 10 -65 21 -99 24 -34 4
-79 16 -100 27 -23 12 -57 20 -87 20 -30 0 -65 8 -92 22 -42 21 -45 21 -82 4
-38 -17 -40 -17 -78 3 -21 12 -51 21 -66 21 -37 0 -158 63 -197 104 -42 43
-101 161 -101 202 0 22 -11 45 -35 74 -40 48 -38 41 -24 77 17 45 13 120 -10
151 -17 24 -20 48 -23 167 -3 126 -5 143 -25 172 -17 23 -23 45 -23 86 0 38
-7 67 -25 101 -17 33 -25 63 -25 99 0 29 -6 63 -13 77 -8 14 -18 34 -24 45
-42 76 -63 129 -63 158 0 19 -9 46 -20 60 -16 20 -20 40 -20 105 0 65 -4 87
-25 126 -17 33 -25 63 -25 99 0 36 -8 66 -25 99 -14 26 -25 60 -25 75 0 15 -7
39 -14 53 -69 123 -86 167 -86 220 0 38 -6 64 -20 85 -11 16 -22 50 -26 75 -3
25 -13 56 -22 70 -9 14 -19 57 -22 96 -5 50 -13 80 -28 102 -12 16 -22 44 -22
62 0 17 -6 43 -14 58 -17 32 -141 155 -173 171 -12 6 -51 11 -87 11 -54 0 -69
-4 -93 -24z m547 -3874 c0 -20 10 -55 22 -77 12 -22 25 -61 29 -88 4 -26 17
-59 28 -74 19 -24 21 -39 21 -200 l0 -175 -29 -29 c-26 -25 -37 -29 -85 -29
-50 0 -60 4 -97 37 -39 35 -41 39 -34 78 11 59 7 84 -15 112 -16 21 -20 41
-20 104 0 78 0 78 43 127 33 37 45 60 50 94 5 39 28 93 61 146 14 23 26 12 26
-26z"/>
<path d="M11319 9545 c-48 -27 -48 -87 0 -138 28 -31 158 -97 190 -97 22 0
131 90 145 120 14 30 -2 67 -41 97 -34 26 -43 28 -152 31 -87 1 -122 -2 -142
-13z"/>
<path d="M13135 8861 c-48 -30 -102 -92 -123 -141 -11 -25 -32 -56 -47 -70
-15 -14 -36 -45 -47 -69 -10 -25 -37 -64 -58 -88 -41 -44 -47 -66 -29 -105 60
-132 94 -158 157 -122 47 27 82 78 82 119 0 49 62 160 129 230 l61 63 0 75 c0
60 -4 79 -21 101 -25 31 -61 34 -104 7z"/>
<path d="M13024 7551 c-55 -40 -80 -70 -100 -116 -22 -53 -40 -72 -91 -95 -47
-20 -67 -55 -57 -95 3 -13 34 -51 69 -84 80 -77 114 -82 177 -23 39 37 41 42
47 114 6 71 9 78 47 120 47 51 61 101 44 154 -20 61 -74 71 -136 25z"/>
<path d="M13385 7088 c-11 -6 -64 -54 -117 -107 -120 -117 -124 -137 -44 -199
24 -18 41 -22 106 -22 67 0 79 3 97 23 11 12 24 32 28 45 4 13 27 46 52 74 40
45 44 55 39 86 -6 38 -36 76 -78 98 -32 17 -56 17 -83 2z"/>
<path d="M13842 6591 c-46 -34 -68 -84 -53 -123 12 -31 74 -86 107 -94 48 -12
96 4 138 45 34 34 40 47 44 95 4 49 2 57 -21 80 -23 23 -34 26 -100 26 -66 0
-78 -3 -115 -29z"/>
<path d="M14680 12260 c-79 -41 -120 -78 -120 -110 0 -28 67 -89 107 -96 95
-18 188 15 213 75 9 23 6 36 -21 89 -29 60 -57 84 -92 81 -7 0 -46 -18 -87
-39z"/>
<path d="M14692 11834 c-79 -38 -92 -56 -92 -123 0 -44 32 -98 72 -120 25 -14
31 -14 73 7 25 12 59 22 75 22 22 0 44 12 75 41 38 35 45 47 45 80 0 65 -74
130 -147 129 -15 -1 -61 -17 -101 -36z"/>
</g>
</svg>
